<svg width="16" height="16" viewBox="0 0 16 16" fill="none" xmlns="http://www.w3.org/2000/svg">
<path d="M13.6 2.52633H8.576L8.32 1.68423C8.15404 1.19011 7.8462 0.762547 7.43912 0.460785C7.03204 0.159024 6.54589 -0.0020016 6.048 1.8782e-05H2.4C1.76348 1.8782e-05 1.15303 0.266183 0.702944 0.739959C0.252856 1.21373 0 1.85631 0 2.52633V13.4737C0 14.1437 0.252856 14.7863 0.702944 15.2601C1.15303 15.7338 1.76348 16 2.4 16H13.6C14.2365 16 14.847 15.7338 15.2971 15.2601C15.7471 14.7863 16 14.1437 16 13.4737V5.05264C16 4.38262 15.7471 3.74005 15.2971 3.26627C14.847 2.7925 14.2365 2.52633 13.6 2.52633Z" fill="#E1E5E9"/>
<path d="M7.2 9.27225L9.832 6.63225C9.98264 6.4816 10.187 6.39697 10.4 6.39697C10.613 6.39697 10.8174 6.4816 10.968 6.63225C11.1186 6.78289 11.2033 6.9872 11.2033 7.20024C11.2033 7.41329 11.1186 7.6176 10.968 7.76825L7.768 10.9682C7.69363 11.0432 7.60514 11.1027 7.50766 11.1434C7.41017 11.184 7.30561 11.2049 7.2 11.2049C7.09439 11.2049 6.98982 11.184 6.89233 11.1434C6.79485 11.1027 6.70637 11.0432 6.632 10.9682L5.032 9.36825C4.88135 9.2176 4.79672 9.01329 4.79672 8.80025C4.79672 8.5872 4.88135 8.38289 5.032 8.23224C5.18264 8.0816 5.38695 7.99697 5.6 7.99697C5.81304 7.99697 6.01735 8.0816 6.168 8.23224L7.2 9.27225Z" fill="#B0B3B6"/>
</svg>
