<svg
    width="19"
    height="13"
    viewBox="0 0 19 13"
    fill="none"
    xmlns="http://www.w3.org/2000/svg"
>
    <path
        d="M5.4033 12.259C5.56524 12.4154 5.78214 12.5019 6.00728 12.5C6.23241 12.498 6.44777 12.4077 6.60697 12.2485C6.76617 12.0893 6.85648 11.8739 6.85843 11.6488C6.86039 11.4237 6.77384 11.2068 6.61743 11.0448L2.93125 7.35865H18.0315C18.2592 7.35865 18.4776 7.26818 18.6386 7.10716C18.7997 6.94613 18.8901 6.72773 18.8901 6.5C18.8901 6.27227 18.7997 6.05387 18.6386 5.89284C18.4776 5.73181 18.2592 5.64135 18.0315 5.64135H2.93125L6.61743 1.95516C6.77384 1.79322 6.86039 1.57632 6.85843 1.35119C6.85648 1.12605 6.76617 0.910694 6.60697 0.751493C6.44777 0.592292 6.23241 0.501989 6.00728 0.500032C5.78214 0.498076 5.56524 0.584624 5.4033 0.741034L0.2514 5.89293C0.0904284 6.05395 0 6.27232 0 6.5C0 6.72768 0.0904284 6.94604 0.2514 7.10706L5.4033 12.259Z"
        fill="#3E3E49"
    />
</svg>
