<svg width="12" height="13" viewBox="0 0 12 13" fill="none" xmlns="http://www.w3.org/2000/svg">
<path d="M11.4 4.1H4.2C4.04087 4.1 3.88826 4.16321 3.77574 4.27574C3.66321 4.38826 3.6 4.54087 3.6 4.7V11.9C3.6 12.0591 3.66321 12.2117 3.77574 12.3243C3.88826 12.4368 4.04087 12.5 4.2 12.5H11.4C11.5591 12.5 11.7117 12.4368 11.8243 12.3243C11.9368 12.2117 12 12.0591 12 11.9V4.7C12 4.54087 11.9368 4.38826 11.8243 4.27574C11.7117 4.16321 11.5591 4.1 11.4 4.1ZM10.8 11.3H4.8V5.3H10.8V11.3ZM2.4 8.3C2.4 8.45913 2.33679 8.61174 2.22426 8.72426C2.11174 8.83679 1.95913 8.9 1.8 8.9H0.6C0.44087 8.9 0.288258 8.83679 0.175736 8.72426C0.0632141 8.61174 0 8.45913 0 8.3V1.1C0 0.94087 0.0632141 0.788258 0.175736 0.675736C0.288258 0.563214 0.44087 0.5 0.6 0.5H7.8C7.95913 0.5 8.11174 0.563214 8.22426 0.675736C8.33679 0.788258 8.4 0.94087 8.4 1.1V2.3C8.4 2.45913 8.33679 2.61174 8.22426 2.72426C8.11174 2.83679 7.95913 2.9 7.8 2.9C7.64087 2.9 7.48826 2.83679 7.37574 2.72426C7.26321 2.61174 7.2 2.45913 7.2 2.3V1.7H1.2V7.7H1.8C1.95913 7.7 2.11174 7.76321 2.22426 7.87574C2.33679 7.98826 2.4 8.14087 2.4 8.3Z" fill="#384047"/>
</svg>
