<svg width="17" height="18" viewBox="0 0 17 18" fill="none" xmlns="http://www.w3.org/2000/svg">
<path d="M4.761 10.161C4.67664 10.2447 4.60969 10.3442 4.564 10.4539C4.51831 10.5636 4.49478 10.6812 4.49478 10.8C4.49478 10.9188 4.51831 11.0364 4.564 11.1461C4.60969 11.2558 4.67664 11.3553 4.761 11.439L7.461 14.139C7.54467 14.2234 7.64421 14.2903 7.75388 14.336C7.86355 14.3817 7.98119 14.4052 8.1 14.4052C8.21881 14.4052 8.33645 14.3817 8.44612 14.336C8.55579 14.2903 8.65533 14.2234 8.739 14.139L11.439 11.439C11.6085 11.2695 11.7037 11.0397 11.7037 10.8C11.7037 10.5603 11.6085 10.3305 11.439 10.161C11.2695 9.99153 11.0397 9.89632 10.8 9.89632C10.5603 9.89632 10.3305 9.99153 10.161 10.161L9 11.331V0.9C9 0.661305 8.90518 0.432387 8.7364 0.263604C8.56761 0.0948211 8.3387 0 8.1 0C7.86131 0 7.63239 0.0948211 7.4636 0.263604C7.29482 0.432387 7.2 0.661305 7.2 0.9V11.331L6.039 10.161C5.95533 10.0766 5.85579 10.0097 5.74612 9.964C5.63645 9.91831 5.51881 9.89478 5.4 9.89478C5.28119 9.89478 5.16355 9.91831 5.05388 9.964C4.94421 10.0097 4.84467 10.0766 4.761 10.161ZM13.5 6.3H11.7C11.4613 6.3 11.2324 6.39482 11.0636 6.5636C10.8948 6.73239 10.8 6.96131 10.8 7.2C10.8 7.43869 10.8948 7.66761 11.0636 7.8364C11.2324 8.00518 11.4613 8.1 11.7 8.1H13.5C13.7387 8.1 13.9676 8.19482 14.1364 8.3636C14.3052 8.53239 14.4 8.7613 14.4 9V15.3C14.4 15.5387 14.3052 15.7676 14.1364 15.9364C13.9676 16.1052 13.7387 16.2 13.5 16.2H2.7C2.46131 16.2 2.23239 16.1052 2.0636 15.9364C1.89482 15.7676 1.8 15.5387 1.8 15.3V9C1.8 8.7613 1.89482 8.53239 2.0636 8.3636C2.23239 8.19482 2.46131 8.1 2.7 8.1H4.5C4.7387 8.1 4.96761 8.00518 5.1364 7.8364C5.30518 7.66761 5.4 7.43869 5.4 7.2C5.4 6.96131 5.30518 6.73239 5.1364 6.5636C4.96761 6.39482 4.7387 6.3 4.5 6.3H2.7C1.98392 6.3 1.29716 6.58446 0.790812 7.09081C0.284464 7.59716 0 8.28392 0 9V15.3C0 16.0161 0.284464 16.7028 0.790812 17.2092C1.29716 17.7155 1.98392 18 2.7 18H13.5C14.2161 18 14.9028 17.7155 15.4092 17.2092C15.9155 16.7028 16.2 16.0161 16.2 15.3V9C16.2 8.28392 15.9155 7.59716 15.4092 7.09081C14.9028 6.58446 14.2161 6.3 13.5 6.3Z" fill="#003D79"/>
</svg>
