<svg width="12" height="12" viewBox="0 0 12 12" fill="none" xmlns="http://www.w3.org/2000/svg">
<path d="M11.9991 3.14378C11.9996 3.06482 11.9844 2.98655 11.9546 2.91345C11.9247 2.84035 11.8807 2.77387 11.8251 2.71781L9.28132 0.173997C9.22526 0.118392 9.15877 0.0744005 9.08568 0.044544C9.01258 0.0146874 8.93431 -0.000446474 8.85535 1.00278e-05C8.77639 -0.000446474 8.69812 0.0146874 8.62502 0.044544C8.55192 0.0744005 8.48544 0.118392 8.42938 0.173997L6.73151 1.87187L0.173997 8.42938C0.118392 8.48544 0.0744005 8.55192 0.044544 8.62502C0.0146874 8.69812 -0.000446474 8.77639 1.00278e-05 8.85535V11.3992C1.00278e-05 11.5583 0.0632194 11.7109 0.175733 11.8234C0.288246 11.9359 0.440847 11.9991 0.599965 11.9991H3.14378C3.22773 12.0037 3.3117 11.9906 3.39025 11.9606C3.4688 11.9306 3.54017 11.8845 3.59974 11.8251L10.1213 5.26762L11.8251 3.59974C11.8799 3.54159 11.9245 3.47467 11.9571 3.40176C11.9629 3.35393 11.9629 3.30559 11.9571 3.25777C11.9599 3.22984 11.9599 3.2017 11.9571 3.17377L11.9991 3.14378ZM2.89779 10.7992H1.19992V9.10133L7.15748 3.14378L8.85535 4.84165L2.89779 10.7992ZM9.70129 3.99571L8.00341 2.29784L8.85535 1.4519L10.5472 3.14378L9.70129 3.99571Z" fill="#384047"/>
</svg>
