<svg
    width="12"
    height="13"
    viewBox="0 0 12 13"
    fill="none"
    xmlns="http://www.w3.org/2000/svg"
>
    <path
        d="M10.8113 4.208V1.1C10.8113 0.94087 10.748 0.788258 10.6352 0.675736C10.5224 0.563214 10.3694 0.5 10.2099 0.5C10.0504 0.5 9.89743 0.563214 9.78464 0.675736C9.67185 0.788258 9.60849 0.94087 9.60849 1.1V4.208C9.26018 4.33412 8.95924 4.56418 8.74657 4.8669C8.53389 5.16962 8.41981 5.53033 8.41981 5.9C8.41981 6.26967 8.53389 6.63038 8.74657 6.9331C8.95924 7.23582 9.26018 7.46588 9.60849 7.592V11.9C9.60849 12.0591 9.67185 12.2117 9.78464 12.3243C9.89743 12.4368 10.0504 12.5 10.2099 12.5C10.3694 12.5 10.5224 12.4368 10.6352 12.3243C10.748 12.2117 10.8113 12.0591 10.8113 11.9V7.592C11.1596 7.46588 11.4606 7.23582 11.6732 6.9331C11.8859 6.63038 12 6.26967 12 5.9C12 5.53033 11.8859 5.16962 11.6732 4.8669C11.4606 4.56418 11.1596 4.33412 10.8113 4.208ZM10.2099 6.5C10.091 6.5 9.97468 6.46481 9.87578 6.39888C9.77687 6.33295 9.69979 6.23925 9.65427 6.12961C9.60875 6.01997 9.59684 5.89933 9.62004 5.78295C9.64325 5.66656 9.70053 5.55965 9.78464 5.47574C9.86875 5.39182 9.97591 5.33468 10.0926 5.31153C10.2092 5.28838 10.3302 5.30026 10.4401 5.34567C10.5499 5.39109 10.6439 5.46799 10.71 5.56666C10.776 5.66533 10.8113 5.78133 10.8113 5.9C10.8113 6.05913 10.748 6.21174 10.6352 6.32426C10.5224 6.43679 10.3694 6.5 10.2099 6.5ZM6.60141 7.808V1.1C6.60141 0.94087 6.53805 0.788258 6.42526 0.675736C6.31248 0.563214 6.15951 0.5 6 0.5C5.8405 0.5 5.68752 0.563214 5.57474 0.675736C5.46195 0.788258 5.39859 0.94087 5.39859 1.1V7.808C5.05027 7.93412 4.74933 8.16418 4.53666 8.4669C4.32399 8.76962 4.2099 9.13033 4.2099 9.5C4.2099 9.86967 4.32399 10.2304 4.53666 10.5331C4.74933 10.8358 5.05027 11.0659 5.39859 11.192V11.9C5.39859 12.0591 5.46195 12.2117 5.57474 12.3243C5.68752 12.4368 5.8405 12.5 6 12.5C6.15951 12.5 6.31248 12.4368 6.42526 12.3243C6.53805 12.2117 6.60141 12.0591 6.60141 11.9V11.192C6.94973 11.0659 7.25067 10.8358 7.46334 10.5331C7.67601 10.2304 7.7901 9.86967 7.7901 9.5C7.7901 9.13033 7.67601 8.76962 7.46334 8.4669C7.25067 8.16418 6.94973 7.93412 6.60141 7.808ZM6 10.1C5.88105 10.1 5.76477 10.0648 5.66587 9.99888C5.56697 9.93295 5.48988 9.83925 5.44437 9.72961C5.39885 9.61997 5.38694 9.49933 5.41014 9.38295C5.43335 9.26656 5.49063 9.15965 5.57474 9.07574C5.65884 8.99182 5.76601 8.93468 5.88267 8.91153C5.99933 8.88838 6.12026 8.90026 6.23015 8.94567C6.34005 8.99109 6.43397 9.06799 6.50006 9.16666C6.56614 9.26533 6.60141 9.38133 6.60141 9.5C6.60141 9.65913 6.53805 9.81174 6.42526 9.92426C6.31248 10.0368 6.15951 10.1 6 10.1ZM2.39151 3.008V1.1C2.39151 0.94087 2.32815 0.788258 2.21536 0.675736C2.10257 0.563214 1.9496 0.5 1.7901 0.5C1.63059 0.5 1.47762 0.563214 1.36483 0.675736C1.25205 0.788258 1.18868 0.94087 1.18868 1.1V3.008C0.840371 3.13412 0.539431 3.36418 0.32676 3.6669C0.114088 3.96962 0 4.33033 0 4.7C0 5.06967 0.114088 5.43038 0.32676 5.7331C0.539431 6.03582 0.840371 6.26588 1.18868 6.392V11.9C1.18868 12.0591 1.25205 12.2117 1.36483 12.3243C1.47762 12.4368 1.63059 12.5 1.7901 12.5C1.9496 12.5 2.10257 12.4368 2.21536 12.3243C2.32815 12.2117 2.39151 12.0591 2.39151 11.9V6.392C2.73982 6.26588 3.04076 6.03582 3.25343 5.7331C3.46611 5.43038 3.58019 5.06967 3.58019 4.7C3.58019 4.33033 3.46611 3.96962 3.25343 3.6669C3.04076 3.36418 2.73982 3.13412 2.39151 3.008ZM1.7901 5.3C1.67115 5.3 1.55487 5.26481 1.45597 5.19888C1.35707 5.13295 1.27998 5.03925 1.23446 4.92961C1.18894 4.81997 1.17703 4.69933 1.20024 4.58295C1.22344 4.46656 1.28072 4.35965 1.36483 4.27574C1.44894 4.19182 1.5561 4.13468 1.67277 4.11153C1.78943 4.08838 1.91035 4.10026 2.02025 4.14567C2.13014 4.19108 2.22407 4.26799 2.29015 4.36666C2.35624 4.46533 2.39151 4.58133 2.39151 4.7C2.39151 4.85913 2.32815 5.01174 2.21536 5.12426C2.10257 5.23679 1.9496 5.3 1.7901 5.3Z"
        fill="#003D79"
    />
</svg>