<svg width="16" height="16" viewBox="0 0 16 16" fill="none" xmlns="http://www.w3.org/2000/svg">
<path d="M13.6 2.52633H8.576L8.32 1.68423C8.15404 1.19011 7.8462 0.762547 7.43912 0.460785C7.03204 0.159024 6.54589 -0.0020016 6.048 1.8782e-05H2.4C1.76348 1.8782e-05 1.15303 0.266183 0.702944 0.739959C0.252856 1.21373 0 1.85631 0 2.52633V13.4737C0 14.1437 0.252856 14.7863 0.702944 15.2601C1.15303 15.7338 1.76348 16 2.4 16H13.6C14.2365 16 14.847 15.7338 15.2971 15.2601C15.7471 14.7863 16 14.1437 16 13.4737V5.05264C16 4.38263 15.7471 3.74005 15.2971 3.26627C14.847 2.7925 14.2365 2.52633 13.6 2.52633Z" fill="#E1E5E9"/>
</svg>
