<svg width="16" height="16" viewBox="0 0 16 16" fill="none" xmlns="http://www.w3.org/2000/svg">
<path d="M13.6 2.52633H8.576L8.32 1.68423C8.15404 1.19011 7.8462 0.762547 7.43912 0.460785C7.03204 0.159024 6.54589 -0.0020016 6.048 1.8782e-05H2.4C1.76348 1.8782e-05 1.15303 0.266183 0.702944 0.739959C0.252856 1.21373 0 1.85631 0 2.52633V13.4737C0 14.1437 0.252856 14.7863 0.702944 15.2601C1.15303 15.7338 1.76348 16 2.4 16H13.6C14.2365 16 14.847 15.7338 15.2971 15.2601C15.7471 14.7863 16 14.1437 16 13.4737V5.05264C16 4.38262 15.7471 3.74005 15.2971 3.26627C14.847 2.7925 14.2365 2.52633 13.6 2.52633Z" fill="#E1E5E9"/>
<path d="M8.06919 8.8L9.17748 9.8344C9.25788 9.90851 9.32179 9.99673 9.36553 10.094C9.40926 10.1912 9.43196 10.2956 9.43231 10.4011C9.43266 10.5065 9.41067 10.611 9.36759 10.7085C9.3245 10.806 9.26119 10.8946 9.18128 10.9692C9.10137 11.0438 9.00645 11.1029 8.90198 11.1431C8.79751 11.1833 8.68556 11.2038 8.57255 11.2035C8.45955 11.2031 8.34773 11.1819 8.24354 11.1411C8.13934 11.1003 8.04483 11.0406 7.96543 10.9656L5.394 8.5656C5.31439 8.49134 5.25123 8.40316 5.20815 8.30611C5.16506 8.20905 5.14288 8.10503 5.14288 7.99998C5.14288 7.89492 5.16506 7.7909 5.20815 7.69385C5.25123 7.59679 5.31439 7.50862 5.394 7.43435L7.96543 5.03435C8.1265 4.8859 8.34396 4.80296 8.57033 4.80363C8.7967 4.8043 9.01359 4.88853 9.17365 5.03792C9.33372 5.18732 9.42395 5.38976 9.42466 5.60104C9.42537 5.81231 9.33649 6.01527 9.17743 6.1656L8.06919 7.2H12V2.4C11.9993 1.76369 11.7281 1.15365 11.246 0.703711C10.7639 0.253774 10.1103 0.000694557 9.42857 0H2.57143C1.88967 0.000694557 1.23605 0.253774 0.753976 0.703711C0.271901 1.15365 0.000744168 1.76369 0 2.4V13.6C0.000744168 14.2363 0.271901 14.8464 0.753976 15.2963C1.23605 15.7462 1.88967 15.9993 2.57143 16H9.42857C10.1103 15.9993 10.7639 15.7462 11.246 15.2963C11.7281 14.8464 11.9993 14.2363 12 13.6V8.8H8.06919Z" fill="#B0B3B6"/>
</svg>
