<svg width="12" height="11" viewBox="0 0 12 11" fill="none" xmlns="http://www.w3.org/2000/svg">
<path d="M10.2 1.90001H8.4V1.30001C8.4 0.981746 8.27357 0.676522 8.04853 0.451478C7.82348 0.226434 7.51826 0.100006 7.2 0.100006H4.8C4.48174 0.100006 4.17652 0.226434 3.95147 0.451478C3.72643 0.676522 3.6 0.981746 3.6 1.30001V1.90001H1.8C1.32261 1.90001 0.864773 2.08965 0.527208 2.42721C0.189642 2.76478 0 3.22262 0 3.70001V9.10001C0 9.5774 0.189642 10.0352 0.527208 10.3728C0.864773 10.7104 1.32261 10.9 1.8 10.9H10.2C10.6774 10.9 11.1352 10.7104 11.4728 10.3728C11.8104 10.0352 12 9.5774 12 9.10001V3.70001C12 3.22262 11.8104 2.76478 11.4728 2.42721C11.1352 2.08965 10.6774 1.90001 10.2 1.90001ZM4.8 1.30001H7.2V1.90001H4.8V1.30001ZM10.8 9.10001C10.8 9.25914 10.7368 9.41175 10.6243 9.52427C10.5117 9.63679 10.3591 9.70001 10.2 9.70001H1.8C1.64087 9.70001 1.48826 9.63679 1.37574 9.52427C1.26321 9.41175 1.2 9.25914 1.2 9.10001V6.10001H3.6V6.70001C3.6 6.85914 3.66321 7.01175 3.77574 7.12427C3.88826 7.23679 4.04087 7.30001 4.2 7.30001C4.35913 7.30001 4.51174 7.23679 4.62426 7.12427C4.73679 7.01175 4.8 6.85914 4.8 6.70001V6.10001H7.2V6.70001C7.2 6.85914 7.26321 7.01175 7.37574 7.12427C7.48826 7.23679 7.64087 7.30001 7.8 7.30001C7.95913 7.30001 8.11174 7.23679 8.22426 7.12427C8.33679 7.01175 8.4 6.85914 8.4 6.70001V6.10001H10.8V9.10001ZM10.8 4.90001H1.2V3.70001C1.2 3.54088 1.26321 3.38826 1.37574 3.27574C1.48826 3.16322 1.64087 3.10001 1.8 3.10001H10.2C10.3591 3.10001 10.5117 3.16322 10.6243 3.27574C10.7368 3.38826 10.8 3.54088 10.8 3.70001V4.90001Z" fill="#003D79"/>
</svg>
