<svg width="12" height="13" viewBox="0 0 12 13" fill="none" xmlns="http://www.w3.org/2000/svg">
<path d="M7.686 6.668C8.06579 6.26015 8.27974 5.72527 8.286 5.168C8.286 4.56649 8.04705 3.98961 7.62172 3.56428C7.19639 3.13895 6.61951 2.9 6.018 2.9C5.41649 2.9 4.83961 3.13895 4.41428 3.56428C3.98895 3.98961 3.75 4.56649 3.75 5.168C3.75626 5.72527 3.97021 6.26015 4.35 6.668C3.82119 6.93132 3.36613 7.32196 3.02575 7.80478C2.68537 8.2876 2.47034 8.84746 2.4 9.434C2.3825 9.59313 2.42892 9.7527 2.52907 9.8776C2.62921 10.0025 2.77487 10.0825 2.934 10.1C3.09313 10.1175 3.2527 10.0711 3.3776 9.97093C3.50249 9.87079 3.5825 9.72513 3.6 9.566C3.6716 8.98468 3.95331 8.44961 4.39205 8.06159C4.8308 7.67357 5.39629 7.45939 5.982 7.45939C6.56771 7.45939 7.1332 7.67357 7.57195 8.06159C8.01069 8.44961 8.2924 8.98468 8.364 9.566C8.38069 9.71985 8.45617 9.8613 8.57469 9.96081C8.6932 10.0603 8.84558 10.1102 9 10.1H9.066C9.22328 10.0819 9.36704 10.0024 9.46594 9.87875C9.56484 9.75512 9.61087 9.59742 9.594 9.44C9.52888 8.85655 9.32063 8.29822 8.98777 7.81463C8.65491 7.33104 8.20774 6.93716 7.686 6.668ZM6 6.236C5.78877 6.236 5.58228 6.17336 5.40665 6.05601C5.23102 5.93866 5.09413 5.77186 5.0133 5.57671C4.93246 5.38155 4.91131 5.16682 4.95252 4.95964C4.99373 4.75247 5.09545 4.56217 5.24481 4.41281C5.39417 4.26345 5.58447 4.16173 5.79164 4.12052C5.99882 4.07931 6.21355 4.10046 6.40871 4.1813C6.60386 4.26213 6.77066 4.39902 6.88801 4.57465C7.00536 4.75028 7.068 4.95677 7.068 5.168C7.068 5.45125 6.95548 5.7229 6.75519 5.92319C6.5549 6.12348 6.28325 6.236 6 6.236ZM10.2 0.5H1.8C1.32261 0.5 0.864773 0.689642 0.527208 1.02721C0.189642 1.36477 0 1.82261 0 2.3V10.7C0 11.1774 0.189642 11.6352 0.527208 11.9728C0.864773 12.3104 1.32261 12.5 1.8 12.5H10.2C10.6774 12.5 11.1352 12.3104 11.4728 11.9728C11.8104 11.6352 12 11.1774 12 10.7V2.3C12 1.82261 11.8104 1.36477 11.4728 1.02721C11.1352 0.689642 10.6774 0.5 10.2 0.5ZM10.8 10.7C10.8 10.8591 10.7368 11.0117 10.6243 11.1243C10.5117 11.2368 10.3591 11.3 10.2 11.3H1.8C1.64087 11.3 1.48826 11.2368 1.37574 11.1243C1.26321 11.0117 1.2 10.8591 1.2 10.7V2.3C1.2 2.14087 1.26321 1.98826 1.37574 1.87574C1.48826 1.76321 1.64087 1.7 1.8 1.7H10.2C10.3591 1.7 10.5117 1.76321 10.6243 1.87574C10.7368 1.98826 10.8 2.14087 10.8 2.3V10.7Z" fill="#003D79"/>
</svg>
